<svg xmlns="http://www.w3.org/2000/svg" version="1.1" xmlns:xlink="http://www.w3.org/1999/xlink" xmlns:svgjs="http://svgjs.dev/svgjs" width="1500" height="1500" viewBox="0 0 1500 1500"><g transform="matrix(1,0,0,1,-0.21332335329316265,-0.21332335329350371)"><svg viewBox="0 0 334 334" data-background-color="#ffffff" preserveAspectRatio="xMidYMid meet" height="1500" width="1500" xmlns="http://www.w3.org/2000/svg" xmlns:xlink="http://www.w3.org/1999/xlink"><g id="tight-bounds" transform="matrix(1,0,0,1,0.04749999999998522,0.04750000000001364)"><svg viewBox="0 0 333.90454557049503 333.90454557049503" height="333.90454557049503" width="333.90454557049503"><g><svg></svg></g><g><svg viewBox="0 0 333.90454557049503 333.90454557049503" height="333.90454557049503" width="333.90454557049503"><g><path d="M0 166.952c0-92.205 74.747-166.952 166.952-166.952 92.205 0 166.952 74.747 166.953 166.952 0 92.205-74.747 166.952-166.953 166.953-92.205 0-166.952-74.747-166.952-166.953zM166.952 329.595c89.825 0 162.643-72.818 162.643-162.643 0-89.825-72.818-162.643-162.643-162.642-89.825 0-162.643 72.818-162.642 162.642 0 89.825 72.818 162.643 162.642 162.643z" data-fill-palette-color="tertiary" fill="#b10dc9" stroke="transparent"></path><ellipse rx="160.27418187383762" ry="160.27418187383762" cx="166.95227278524752" cy="166.95227278524752" fill="#b10dc9" stroke="transparent" stroke-width="0" fill-opacity="1" data-fill-palette-color="tertiary"></ellipse></g><g transform="matrix(1,0,0,1,83.65024447249527,71.17305217166896)"><svg viewBox="0 0 166.60405662550448 191.55844122715712" height="191.55844122715712" width="166.60405662550448"><g><svg viewBox="0 0 166.60405662550448 191.55844122715712" height="191.55844122715712" width="166.60405662550448"><g><svg viewBox="0 0 213.1584412271571 245.08586143054345" height="191.55844122715712" width="166.60405662550448"><g transform="matrix(1,0,0,1,0,146.1666095847314)"><svg viewBox="0 0 213.1584412271571 98.91925184581207" height="98.91925184581207" width="213.1584412271571"><g id="textblocktransform"><svg viewBox="0 0 213.1584412271571 98.91925184581207" height="98.91925184581207" width="213.1584412271571" id="textblock"><g><svg viewBox="0 0 213.1584412271571 98.91925184581207" height="98.91925184581207" width="213.1584412271571"><g transform="matrix(1,0,0,1,0,0)"><svg width="213.1584412271571" viewBox="1.76 -36.06 78.8 36.57" height="98.91925184581207" data-palette-color="#ffffff"><path d="M17.36 0L13.06 0 4.76-32.08 1.76-32.45 1.76-35.55 13.28-35.55 13.28-32.45 9.59-31.88 14.23-12.33 15.31-7.76 15.45-7.74 16.87-12.3 24.02-35.55 28.25-35.55 35.47-12.3 36.87-7.47 37.01-7.47 38.28-12.3 42.87-31.88 38.89-32.45 38.89-35.55 50.22-35.55 50.22-32.45 47.41-32.08 39.45 0 34.89 0 27.17-24.61 26.2-28.2 26.05-28.2 25.1-24.61 17.36 0ZM68.65 0.51L68.65 0.51Q63.72 0.51 60.1-1.77 56.49-4.05 54.54-8.11 52.59-12.16 52.59-17.48L52.59-17.48 52.59-18.07Q52.59-23.44 54.55-27.48 56.52-31.52 59.93-33.79 63.35-36.06 67.7-36.06L67.7-36.06Q71.85-36.06 74.74-35.11 77.63-34.16 79.69-32.54L79.69-32.54 79.69-25.37 75.73-25.37 75.22-30.52Q74.02-31.3 72.29-31.7 70.55-32.1 68.19-32.1L68.19-32.1Q65.13-32.1 62.69-30.35 60.25-28.59 58.84-25.45 57.42-22.31 57.42-18.12L57.42-18.12 57.42-17.48Q57.42-13.23 58.73-10.07 60.03-6.91 62.55-5.16 65.06-3.42 68.65-3.42L68.65-3.42Q71.09-3.42 72.78-3.85 74.46-4.27 75.75-4.96L75.75-4.96 75.75-13.31 68.94-13.55 68.94-17.09 80.56-17.09 80.56-3.32Q79.03-1.88 76.16-0.68 73.29 0.51 68.65 0.51Z" opacity="1" transform="matrix(1,0,0,1,0,0)" fill="#ffffff" class="wordmark-text-0" data-fill-palette-color="quaternary" id="text-0"></path></svg></g></svg></g></svg></g></svg></g><g transform="matrix(1,0,0,1,40.713262274387006,0)"><svg viewBox="0 0 131.7319166783831 131.7319166783831" height="131.7319166783831" width="131.7319166783831"><g><svg version="1.1" xmlns:dc="http://purl.org/dc/elements/1.1/" xmlns:inkscape="http://www.inkscape.org/namespaces/inkscape" xmlns:rdf="http://www.w3.org/1999/02/22-rdf-syntax-ns#" xmlns:cc="http://creativecommons.org/ns#" xmlns:svg="http://www.w3.org/2000/svg" xmlns:sodipodi="http://sodipodi.sourceforge.net/DTD/sodipodi-0.dtd" xmlns="http://www.w3.org/2000/svg" xmlns:xlink="http://www.w3.org/1999/xlink" x="0" y="0" viewBox="0 0 100 100" enable-background="new 0 0 100 100" xml:space="preserve" height="131.7319166783831" width="131.7319166783831" class="icon-icon-0" data-fill-palette-color="quaternary" id="icon-0"><path d="M50 0C22.386 0 0 22.386 0 50s22.386 50 50 50 50-22.386 50-50S77.614 0 50 0zM50 14.156c19.799 0 35.844 16.044 35.844 35.844 0 19.799-16.045 35.844-35.844 35.844-19.799 0-35.844-16.045-35.844-35.844C14.156 30.201 30.201 14.156 50 14.156zM50 20.125c-16.505 0-29.875 13.37-29.875 29.875S33.495 79.875 50 79.875 79.875 66.505 79.875 50 66.505 20.125 50 20.125zM50 29.75c11.178 0 20.25 9.072 20.25 20.25S61.178 70.25 50 70.25 29.75 61.178 29.75 50 38.822 29.75 50 29.75z" fill="#ffffff" data-fill-palette-color="quaternary"></path></svg></g></svg></g><g></g></svg></g></svg></g></svg></g></svg></g><defs></defs></svg><rect width="333.90454557049503" height="333.90454557049503" fill="none" stroke="none" visibility="hidden"></rect></g></svg></g></svg>